<mxfile host="app.diagrams.net" modified="2023-03-28T10:00:05.448Z" agent="Mozilla/5.0 (Windows NT 10.0; Win64; x64; rv:109.0) Gecko/20100101 Firefox/111.0" etag="cphuwzRa51qzbmhYFlz5" version="21.1.1" type="google">
  <diagram id="C5RBs43oDa-KdzZeNtuy" name="Page-1">
    <mxGraphModel grid="1" page="1" gridSize="10" guides="1" tooltips="1" connect="1" arrows="1" fold="1" pageScale="1" pageWidth="827" pageHeight="1169" math="0" shadow="0">
      <root>
        <mxCell id="WIyWlLk6GJQsqaUBKTNV-0" />
        <mxCell id="WIyWlLk6GJQsqaUBKTNV-1" parent="WIyWlLk6GJQsqaUBKTNV-0" />
        <mxCell id="AtxcrGBl7O9khGKJAv3k-2" style="edgeStyle=orthogonalEdgeStyle;rounded=0;orthogonalLoop=1;jettySize=auto;html=1;entryX=0.5;entryY=0;entryDx=0;entryDy=0;" edge="1" parent="WIyWlLk6GJQsqaUBKTNV-1" source="WIyWlLk6GJQsqaUBKTNV-3" target="l5k74pO5Fn1SWW0IyM2e-6">
          <mxGeometry relative="1" as="geometry" />
        </mxCell>
        <mxCell id="WIyWlLk6GJQsqaUBKTNV-3" value="&lt;div&gt;Φανάρι μεγάλου δρόμου: Πράσινο&lt;/div&gt;&lt;div&gt;Φανάρι πεζών: Κόκκινο&lt;/div&gt;&lt;div&gt;Φανάρι τραμ: Κόκκινο&lt;br&gt;&lt;/div&gt;" style="rounded=1;whiteSpace=wrap;html=1;fontSize=12;glass=0;strokeWidth=1;shadow=0;" vertex="1" parent="WIyWlLk6GJQsqaUBKTNV-1">
          <mxGeometry x="110" y="100" width="200" height="80" as="geometry" />
        </mxCell>
        <mxCell id="AtxcrGBl7O9khGKJAv3k-5" style="edgeStyle=orthogonalEdgeStyle;rounded=0;orthogonalLoop=1;jettySize=auto;html=1;entryX=0;entryY=0.5;entryDx=0;entryDy=0;" edge="1" parent="WIyWlLk6GJQsqaUBKTNV-1" source="l5k74pO5Fn1SWW0IyM2e-6" target="WIyWlLk6GJQsqaUBKTNV-3">
          <mxGeometry relative="1" as="geometry">
            <Array as="points">
              <mxPoint x="50" y="410" />
              <mxPoint x="50" y="140" />
            </Array>
          </mxGeometry>
        </mxCell>
        <mxCell id="l5k74pO5Fn1SWW0IyM2e-6" value="&lt;div&gt;&lt;b&gt;Για ένα χρονικό διάστημα Τ1&lt;/b&gt;&lt;br&gt;&lt;/div&gt;&lt;div&gt;Φανάρι μεγάλου δρόμου: Κόκκινο&lt;/div&gt;&lt;div&gt;Φανάρι πεζών: Πράσινο&lt;br&gt;&lt;/div&gt;&lt;div&gt;Φανάρι τραμ: Κόκκινο&lt;br&gt;&lt;/div&gt;" style="rounded=1;whiteSpace=wrap;html=1;fontSize=12;glass=0;strokeWidth=1;shadow=0;" vertex="1" parent="WIyWlLk6GJQsqaUBKTNV-1">
          <mxGeometry x="115" y="370" width="190" height="80" as="geometry" />
        </mxCell>
        <mxCell id="AtxcrGBl7O9khGKJAv3k-1" value="&lt;div&gt;Φανάρι μεγάλου δρόμου: Κόκκινο&lt;/div&gt;&lt;div&gt;Φανάρι πεζών: Πράσινο&lt;/div&gt;&lt;div&gt;Φανάρι τραμ: Πράσινο&lt;br&gt;&lt;/div&gt;" style="rounded=1;whiteSpace=wrap;html=1;fontSize=12;glass=0;strokeWidth=1;shadow=0;" vertex="1" parent="WIyWlLk6GJQsqaUBKTNV-1">
          <mxGeometry x="540" y="100" width="190" height="80" as="geometry" />
        </mxCell>
        <mxCell id="AtxcrGBl7O9khGKJAv3k-3" value="&lt;div&gt;Interrupt&lt;/div&gt;&lt;div&gt;Πατήθηκε το κουμπί για τους πεζούς&lt;br&gt;&lt;/div&gt;" style="text;html=1;align=center;verticalAlign=middle;resizable=0;points=[];autosize=1;strokeColor=none;fillColor=none;rotation=90;" vertex="1" parent="WIyWlLk6GJQsqaUBKTNV-1">
          <mxGeometry x="210" y="250" width="220" height="40" as="geometry" />
        </mxCell>
        <mxCell id="AtxcrGBl7O9khGKJAv3k-6" value="Μετά το πέρας Τ1 χρόνου" style="text;html=1;align=center;verticalAlign=middle;resizable=0;points=[];autosize=1;strokeColor=none;fillColor=none;rotation=90;" vertex="1" parent="WIyWlLk6GJQsqaUBKTNV-1">
          <mxGeometry x="-10" y="250" width="160" height="30" as="geometry" />
        </mxCell>
      </root>
    </mxGraphModel>
  </diagram>
</mxfile>
